<svg width="200" height="46" viewBox="0 0 200 46" fill="none" xmlns="http://www.w3.org/2000/svg">
<path d="M21.365 28.015H8.855L6.785 34H0.17L11.465 2.545H18.8L30.095 34H23.435L21.365 28.015ZM19.655 22.975L15.11 9.835L10.565 22.975H19.655ZM40.6169 12.94C41.4269 11.62 42.4769 10.585 43.7669 9.835C45.0869 9.085 46.5869 8.71 48.2669 8.71V15.325H46.6019C44.6219 15.325 43.1219 15.79 42.1019 16.72C41.1119 17.65 40.6169 19.27 40.6169 21.58V34H34.3169V9.07H40.6169V12.94ZM59.8453 14.245V26.305C59.8453 27.145 60.0403 27.76 60.4303 28.15C60.8503 28.51 61.5403 28.69 62.5003 28.69H65.4253V34H61.4653C56.1553 34 53.5003 31.42 53.5003 26.26V14.245H50.5303V9.07H53.5003V2.905H59.8453V9.07H65.4253V14.245H59.8453ZM99.9392 28.015H87.4292L85.3592 34H78.7442L90.0392 2.545H97.3742L108.669 34H102.009L99.9392 28.015ZM98.2292 22.975L93.6842 9.835L89.1392 22.975H98.2292ZM119.191 0.7V34H112.891V0.7H119.191ZM131.716 0.7V34H125.416V0.7H131.716ZM161.115 20.995C161.115 21.895 161.055 22.705 160.935 23.425H142.71C142.86 25.225 143.49 26.635 144.6 27.655C145.71 28.675 147.075 29.185 148.695 29.185C151.035 29.185 152.7 28.18 153.69 26.17H160.485C159.765 28.57 158.385 30.55 156.345 32.11C154.305 33.64 151.8 34.405 148.83 34.405C146.43 34.405 144.27 33.88 142.35 32.83C140.46 31.75 138.975 30.235 137.895 28.285C136.845 26.335 136.32 24.085 136.32 21.535C136.32 18.955 136.845 16.69 137.895 14.74C138.945 12.79 140.415 11.29 142.305 10.24C144.195 9.19 146.37 8.665 148.83 8.665C151.2 8.665 153.315 9.175 155.175 10.195C157.065 11.215 158.52 12.67 159.54 14.56C160.59 16.42 161.115 18.565 161.115 20.995ZM154.59 19.195C154.56 17.575 153.975 16.285 152.835 15.325C151.695 14.335 150.3 13.84 148.65 13.84C147.09 13.84 145.77 14.32 144.69 15.28C143.64 16.21 142.995 17.515 142.755 19.195H154.59ZM189.563 9.07L174.128 45.79H167.423L172.823 33.37L162.833 9.07H169.898L176.333 26.485L182.858 9.07H189.563ZM195.749 34.315C194.609 34.315 193.664 33.97 192.914 33.28C192.194 32.56 191.834 31.675 191.834 30.625C191.834 29.575 192.194 28.705 192.914 28.015C193.664 27.295 194.609 26.935 195.749 26.935C196.859 26.935 197.774 27.295 198.494 28.015C199.214 28.705 199.574 29.575 199.574 30.625C199.574 31.675 199.214 32.56 198.494 33.28C197.774 33.97 196.859 34.315 195.749 34.315Z" fill="white"/>
</svg>
