<svg width="1440" height="2120" viewBox="0 0 1440 2120" fill="none" xmlns="http://www.w3.org/2000/svg">
<g opacity="0.76">
<g filter="url(#filter0_f_159_6)">
<path d="M-74.0045 191.649C-177.136 243.612 -437.412 800.684 -342.382 1333.03C-278.666 1430.39 -309.507 1647.97 -166.362 1811.93C12.5689 2016.88 -55.9156 2046.14 224 1573.04C503.915 1099.94 207.203 1286.6 186.699 936.707C166.196 586.815 417.443 563.245 512.326 117.667C588.233 -238.795 271.35 289.518 179.028 342.097C13.9697 439.343 8.50082 150.078 -74.0045 191.649Z" fill="#2B0135"/>
<path d="M-74.0045 191.649C-177.136 243.612 -437.412 800.684 -342.382 1333.03C-278.666 1430.39 -309.507 1647.97 -166.362 1811.93C12.5689 2016.88 -55.9156 2046.14 224 1573.04C503.915 1099.94 207.203 1286.6 186.699 936.707C166.196 586.815 417.443 563.245 512.326 117.667C588.233 -238.795 271.35 289.518 179.028 342.097C13.9697 439.343 8.50082 150.078 -74.0045 191.649Z" stroke="black"/>
</g>
<g filter="url(#filter1_f_159_6)">
<path d="M649.682 1521.13C661.361 973.152 795.655 636.202 914.591 526.743C908.891 521.464 914.828 518.36 926.643 516.384C960.092 489.679 991.924 481.38 1018.97 491.867C1082.34 516.433 968.175 509.44 926.643 516.384C922.647 519.575 918.628 523.028 914.591 526.743C920.6 532.307 939.54 540.289 978.156 551.915C1091.86 588.389 1560.7 307.466 1396.48 643.185C1191.2 1062.83 1179.5 754.268 1123.1 1184.51C1066.71 1614.75 1165.38 1781.11 749.789 2036.75C334.196 2292.4 600.833 2311.97 449.745 1883.02C328.876 1539.86 697.978 1702.34 649.682 1521.13Z" fill="#5F0202"/>
<path d="M649.682 1521.13C661.361 973.152 795.655 636.202 914.591 526.743C908.891 521.464 914.828 518.36 926.643 516.384C960.092 489.679 991.924 481.38 1018.97 491.867C1082.34 516.433 968.175 509.44 926.643 516.384C922.647 519.575 918.628 523.028 914.591 526.743C920.6 532.307 939.54 540.289 978.156 551.915C1091.86 588.389 1560.7 307.466 1396.48 643.185C1191.2 1062.83 1179.5 754.268 1123.1 1184.51C1066.71 1614.75 1165.38 1781.11 749.789 2036.75C334.196 2292.4 600.833 2311.97 449.745 1883.02C328.876 1539.86 697.978 1702.34 649.682 1521.13Z" stroke="black"/>
</g>
<g filter="url(#filter2_f_159_6)">
<path d="M282.941 1725.11C347.264 1761.28 691.775 1617.41 880.675 1263.76C896.308 1169.94 930.496 937.173 942.191 756.64C956.809 530.975 899.938 647.792 583.327 732.952C266.717 818.113 613.241 294.013 471.958 500.072C330.674 706.132 169.806 1078.88 -59.5039 1265.2C-242.952 1414.26 -168.465 1509.59 -108.291 1538.62C0.678422 1588.73 231.482 1696.18 282.941 1725.11Z" fill="#020153"/>
<path d="M282.941 1725.11C347.264 1761.28 691.775 1617.41 880.675 1263.76C896.308 1169.94 930.496 937.173 942.191 756.64C956.809 530.975 899.938 647.792 583.327 732.952C266.717 818.113 613.241 294.013 471.958 500.072C330.674 706.132 169.806 1078.88 -59.5039 1265.2C-242.952 1414.26 -168.465 1509.59 -108.291 1538.62C0.678422 1588.73 231.482 1696.18 282.941 1725.11Z" stroke="black"/>
</g>
<g filter="url(#filter3_f_159_6)">
<ellipse cx="431.23" cy="407.978" rx="385.505" ry="526.616" transform="rotate(-165.493 431.23 407.978)" fill="#571601"/>
</g>
</g>
<defs>
<filter id="filter0_f_159_6" x="-1090.37" y="-732.566" width="2341.8" height="3413.08" filterUnits="userSpaceOnUse" color-interpolation-filters="sRGB">
<feFlood flood-opacity="0" result="BackgroundImageFix"/>
<feBlend mode="normal" in="SourceGraphic" in2="BackgroundImageFix" result="shape"/>
<feGaussianBlur stdDeviation="363.5" result="effect1_foregroundBlur_159_6"/>
</filter>
<filter id="filter1_f_159_6" x="-302.128" y="-251.235" width="2460.55" height="3197.9" filterUnits="userSpaceOnUse" color-interpolation-filters="sRGB">
<feFlood flood-opacity="0" result="BackgroundImageFix"/>
<feBlend mode="normal" in="SourceGraphic" in2="BackgroundImageFix" result="shape"/>
<feGaussianBlur stdDeviation="363.5" result="effect1_foregroundBlur_159_6"/>
</filter>
<filter id="filter2_f_159_6" x="-902.964" y="-275.851" width="2574.69" height="2733.92" filterUnits="userSpaceOnUse" color-interpolation-filters="sRGB">
<feFlood flood-opacity="0" result="BackgroundImageFix"/>
<feBlend mode="normal" in="SourceGraphic" in2="BackgroundImageFix" result="shape"/>
<feGaussianBlur stdDeviation="363.5" result="effect1_foregroundBlur_159_6"/>
</filter>
<filter id="filter3_f_159_6" x="-691.72" y="-838.008" width="2245.9" height="2491.97" filterUnits="userSpaceOnUse" color-interpolation-filters="sRGB">
<feFlood flood-opacity="0" result="BackgroundImageFix"/>
<feBlend mode="normal" in="SourceGraphic" in2="BackgroundImageFix" result="shape"/>
<feGaussianBlur stdDeviation="363.5" result="effect1_foregroundBlur_159_6"/>
</filter>
</defs>
</svg>
